# xmcd CD database file
#
# Track frame offsets:
#	150
#	103775
#	111105
#	147948
#	184548
#
# Disc length: 3367 seconds
#
# Revision: 0
# Processed by: cddbd v1.5.2PL0 Copyright (c) Steve Scherf et al.
# Submitted via: CDex 1.51
#
DISCID=3e0d2505
DTITLE=Puschnig, Wolfgang and Mitterer, Wolfagng - Obsoderso
DYEAR=1985
DGENRE=Jazz
TTITLE0=Obsoderso
TTITLE1=Ostinato
TTITLE2=Rotationen 1
TTITLE3=Holladijodldijo
TTITLE4=Ive
EXTD=YEAR: 1985
EXTT0=
EXTT1=
EXTT2=
EXTT3=
EXTT4=
PLAYORDER=
